<?xml version="1.0" encoding="utf-8"?>
<!-- Copyright © 2016 Apple Inc. All rights reserved. -->
<svg xmlns="http://www.w3.org/2000/svg" viewBox="0 0 819 397">
    <defs>
      <linearGradient id="a" x1="50%" x2="50%" y1="0%" y2="100%">
        <stop stop-color="#70BF41" offset="0%"/>
        <stop stop-color="#01882B" offset="100%"/>
      </linearGradient>
      <linearGradient id="b" x1="50%" x2="50%" y1="0%" y2="100%">
        <stop stop-color="#51A7F9" offset="0%"/>
        <stop stop-color="#0466C1" offset="100%"/>
      </linearGradient>
    </defs>

    <path stroke="#B9B9B9" stroke-width=".25" d="M 43 295.5L 803 295.5M 43 239.5L 803 239.5M 43 183.5L 803 183.5M 43 127.5L 803 127.5M 43 71.5L 803 71.5"/>
    <path stroke="#000000" d="M 42.5 351.5 L 802.5 351.5"/>
    
    <text fill="#000000" font-family="Helvetica-Bold, Helvetica" font-size="12" font-weight="bold">
        <tspan x="368" y="41">MotionMark on iOS</tspan>
    </text>
    <text fill="#000000" font-family="Helvetica" font-size="10" letter-spacing="0">
        <tspan x="27" y="355">0</tspan>
        <tspan x="21" y="299">48</tspan>
        <tspan x="21" y="243">96</tspan>
        <tspan x="15" y="188">144</tspan>
        <tspan x="15" y="132">192</tspan>
        <tspan x="15" y="76">240</tspan>
    </text>
    <text fill="#000000" font-family="Helvetica" font-size="10" letter-spacing=".002">
        <tspan x="82" y="365">iPhone SE</tspan>
        <tspan x="210" y="365">iPhone 6S</tspan>
        <tspan x="325" y="365">iPhone 6S Plus</tspan>
        <tspan x="465" y="365">iPad Air 2</tspan>
        <tspan x="574" y="365">9.7-inch iPad Pro</tspan>
        <tspan x="698" y="365">12.9-inch iPad Pro</tspan>
    </text>

    <polygon fill="url(#a)" points="109 351 159 351 159 122 109 122"/>
    <polygon fill="url(#a)" points="235 351 286 351 286 126 235 126"/>
    <polygon fill="url(#a)" points="362 351 413 351 413 128 362 128"/>
    <polygon fill="url(#a)" points="489 351 539 351 539 211 489 211"/>
    <polygon fill="url(#a)" points="615 351 666 351 666 98 615 98"/>
    <polygon fill="url(#a)" points="742 351 793 351 793 84 742 84"/>
    <polygon fill="url(#b)" points="53 351 103 351 103 202 53 202"/>
    <polygon fill="url(#b)" points="179 351 230 351 230 207 179 207"/>
    <polygon fill="url(#b)" points="306 351 357 351 357 205 306 205"/>
    <polygon fill="url(#b)" points="433 351 483 351 483 276 433 276"/>
    <polygon fill="url(#b)" points="559 351 610 351 610 218 559 218"/>
    <polygon fill="url(#b)" points="686 351 737 351 737 218 686 218"/>
    <polygon fill="url(#b)" points="43 49 51 49 51 41 43 41"/>
    <polygon fill="url(#a)" points="43 61 51 61 51 53 43 53"/>

    <text fill="#000000" font-family="Helvetica" font-size="10" letter-spacing=".002">
        <tspan x="57" y="49">iOS 9.3.5</tspan>
        <tspan x="57" y="61">iOS 10</tspan>
    </text>
</svg>
